HIERARCHY
ROOT SimulationBone
{
	OFFSET 0.000000 0.000000 0.000000
	CHANNELS 6 Xposition Yposition Zposition Zrotation Yrotation Xrotation 
	JOINT Hips
	{
		OFFSET 0.000000 0.000000 0.000000
		CHANNELS 6 Xposition Yposition Zposition Zrotation Yrotation Xrotation 
		JOINT LeftUpLeg
		{
			OFFSET 0.103462 1.857831 10.548496
			CHANNELS 3 Zrotation Yrotation Xrotation
			JOINT LeftLeg
			{
				OFFSET 43.500000 -0.000038 -0.000010
				CHANNELS 3 Zrotation Yrotation Xrotation
				JOINT LeftFoot
				{
					OFFSET 42.372192 0.000011 0.000010
					CHANNELS 3 Zrotation Yrotation Xrotation
					JOINT LeftToe
					{
						OFFSET 17.299999 0.000001 -0.000001
						CHANNELS 3 Zrotation Yrotation Xrotation
						End Site
						{
							OFFSET 0.000000 0.000000 0.000000
						}
					}
				}
			}
		}
		JOINT RightUpLeg
		{
			OFFSET 0.103456 1.857825 -10.548502
			CHANNELS 3 Zrotation Yrotation Xrotation
			JOINT RightLeg
			{
				OFFSET 43.500038 -0.000023 0.000011
				CHANNELS 3 Zrotation Yrotation Xrotation
				JOINT RightFoot
				{
					OFFSET 42.372261 -0.000008 0.000011
					CHANNELS 3 Zrotation Yrotation Xrotation
					JOINT RightToe
					{
						OFFSET 17.299994 -0.000004 0.000002
						CHANNELS 3 Zrotation Yrotation Xrotation
						End Site
						{
							OFFSET 0.000000 0.000000 0.000000
						}
					}
				}
			}
		}
		JOINT Spine
		{
			OFFSET 6.901965 -2.603729 -0.000002
			CHANNELS 3 Zrotation Yrotation Xrotation
			JOINT Spine1
			{
				OFFSET 12.588101 -0.000004 0.000003
				CHANNELS 3 Zrotation Yrotation Xrotation
				JOINT Spine2
				{
					OFFSET 12.343205 0.000006 0.000001
					CHANNELS 3 Zrotation Yrotation Xrotation
					JOINT Neck
					{
						OFFSET 25.832897 -0.000008 -0.000001
						CHANNELS 3 Zrotation Yrotation Xrotation
						JOINT Head
						{
							OFFSET 11.766601 0.000009 -0.000008
							CHANNELS 3 Zrotation Yrotation Xrotation
							End Site
							{
								OFFSET 0.000000 0.000000 0.000000
							}
						}
					}
					JOINT LeftShoulder
					{
						OFFSET 19.745893 -1.480370 6.000097
						CHANNELS 3 Zrotation Yrotation Xrotation
						JOINT LeftArm
						{
							OFFSET 11.284136 -0.000006 -0.000021
							CHANNELS 3 Zrotation Yrotation Xrotation
							JOINT LeftForeArm
							{
								OFFSET 33.000042 0.000005 0.000030
								CHANNELS 3 Zrotation Yrotation Xrotation
								JOINT LeftHand
								{
									OFFSET 25.200008 0.000013 0.000010
									CHANNELS 3 Zrotation Yrotation Xrotation
									End Site
									{
										OFFSET 0.000000 0.000000 0.000000
									}
								}
							}
						}
					}
					JOINT RightShoulder
					{
						OFFSET 19.746088 -1.480379 -6.000076
						CHANNELS 3 Zrotation Yrotation Xrotation
						JOINT RightArm
						{
							OFFSET 11.284133 -0.000016 -0.000013
							CHANNELS 3 Zrotation Yrotation Xrotation
							JOINT RightForeArm
							{
								OFFSET 33.000095 0.000019 0.000001
								CHANNELS 3 Zrotation Yrotation Xrotation
								JOINT RightHand
								{
									OFFSET 25.199785 0.000138 0.000422
									CHANNELS 3 Zrotation Yrotation Xrotation
									End Site
									{
										OFFSET 0.000000 0.000000 0.000000
									}
								}
							}
						}
					}
				}
			}
		}
	}
}
MOTION
Frames: 6
Frame Time: 0.016667
-223.139838 0.000000 361.351990 0.000000 91.353547 0.000000 5.863944 89.663269 1.070947 102.552598 1.682780 -179.276293 175.838712 -7.767108 177.938394 -36.509160 -5.564089 -0.381246 79.915063 0.327985 -0.363065 21.454555 0.003110 0.000018 -176.044205 6.843504 -177.831625 -56.650452 2.726202 -3.638255 73.596216 5.286523 8.756620 21.454550 -0.003084 -0.000004 7.127343 -0.121745 -0.289952 4.242450 -0.232817 -0.584106 3.924353 -0.236498 -0.582715 6.887151 8.980942 1.347003 -14.434222 -8.372174 5.279912 -30.020093 -72.748395 -152.656707 -15.958730 -10.468829 -27.398994 -27.406309 -19.940695 1.521959 4.455314 -21.895952 -2.181775 -20.701161 76.228390 161.662434 -11.807290 11.556879 20.514810 -28.775330 18.897858 -1.455365 8.262803 23.110666 -11.418444 
-223.272047 0.000000 362.174776 0.000000 91.023184 0.000000 5.773217 89.718466 1.020102 102.801972 1.599830 -179.673946 175.935906 -7.527130 177.898863 -35.865639 -5.691917 -0.822304 79.472392 0.609211 -0.497798 21.454556 0.003111 0.000017 -174.510686 6.174367 -178.605324 -55.896987 2.228379 -5.111878 72.966338 6.415139 8.705345 21.454554 -0.003086 0.000002 7.096960 -0.102174 -0.180294 4.181372 -0.197781 -0.364118 3.863289 -0.200109 -0.362929 7.193583 9.081294 1.252621 -14.724112 -8.073536 5.091240 -30.919862 -71.775793 -151.826898 -16.730213 -10.840461 -27.291135 -27.711241 -20.090435 1.536276 3.641412 -23.015533 -1.593466 -19.349751 75.450141 163.014315 -12.172993 12.126104 21.016876 -29.632280 19.142193 -1.488246 7.410621 24.159933 -11.811540 
-223.360431 0.000000 363.084101 0.000000 90.708913 0.000000 5.691847 89.773827 0.961224 102.954383 1.512357 179.924787 175.841253 -7.312898 177.799619 -35.275853 -5.765825 -1.217995 78.888814 0.858907 -0.624389 21.454557 0.003109 0.000017 -173.158997 5.710904 -179.342135 -54.897962 1.890069 -6.401273 72.114031 7.384655 8.523306 21.454557 -0.003089 0.000004 7.063578 -0.089754 -0.075689 4.114407 -0.176738 -0.154492 3.796319 -0.177802 -0.153424 7.906626 9.522854 1.146781 -16.326162 -8.200458 5.150264 -31.250193 -70.836975 -151.554669 -17.281681 -11.151821 -27.154719 -27.748991 -20.183692 1.543631 3.100140 -23.725696 -1.146609 -17.802670 74.705006 164.558217 -12.365650 12.442811 21.138049 -30.320291 19.527470 -1.525631 6.509029 25.564719 -11.891592 
-223.407231 0.000000 364.076502 0.000000 90.409911 0.000000 5.620659 89.830632 0.895431 103.003322 1.442165 179.565535 175.588605 -7.143232 177.608652 -34.672540 -5.761110 -1.536635 78.231640 1.055401 -0.734757 21.454557 0.003106 0.000017 -172.004492 5.389625 -179.948973 -53.694161 1.687132 -7.449801 71.207714 8.150264 8.254078 21.454557 -0.003091 0.000004 7.027518 -0.076327 0.016153 4.042154 -0.153110 0.029648 3.724054 -0.153075 0.030576 8.724677 10.164775 1.007833 -18.576625 -8.567824 5.332775 -31.374720 -69.941961 -151.481754 -17.711898 -11.440243 -27.059671 -27.547695 -20.194290 1.541083 2.809664 -24.118547 -0.856363 -16.379299 74.016187 165.978000 -12.445112 12.617255 21.038845 -30.698304 19.886338 -1.556484 5.352037 27.070717 -12.131038 
-223.414690 0.000000 365.148513 0.000000 90.125436 0.000000 5.560516 89.890160 0.823833 102.942231 1.411025 179.294021 175.211824 -7.037699 177.294635 -33.988485 -5.652972 -1.746022 77.568320 1.177531 -0.819650 21.454557 0.003104 0.000017 -171.062170 5.144304 179.663577 -52.324217 1.589228 -8.199819 70.419543 8.669371 7.948565 21.454555 -0.003092 0.000003 6.989123 -0.053747 0.087510 3.965305 -0.110369 0.173139 3.647200 -0.109474 0.173803 9.344571 10.865630 0.806333 -20.809756 -8.996496 5.506925 -31.592304 -69.098111 -151.314684 -18.119430 -11.743686 -27.074109 -27.135943 -20.095938 1.526924 2.741846 -24.284009 -0.729936 -15.338669 73.414776 167.017891 -12.468217 12.761898 20.878466 -30.623419 20.051658 -1.565287 3.708352 28.404114 -13.015126 
-223.385049 0.000000 366.296671 0.000000 89.853336 0.000000 5.510420 89.949376 0.750900 102.775593 1.431995 179.157793 174.733574 -7.009860 176.884841 -33.187019 -5.444755 -1.837079 76.948192 1.221182 -0.873795 21.454557 0.003104 0.000017 -170.328793 4.917516 179.553437 -50.811754 1.581391 -8.616803 69.873722 8.922237 7.659444 21.454551 -0.003091 0.000001 6.950245 -0.015841 0.130221 3.887588 -0.035943 0.259844 3.569489 -0.034514 0.260045 9.535548 11.480541 0.520330 -22.483784 -9.336607 5.549637 -32.069236 -68.321198 -150.890138 -18.569133 -12.086154 -27.242152 -26.559439 -19.889165 1.503071 2.861254 -24.275904 -0.743827 -14.820484 72.921206 167.540714 -12.478492 12.954415 20.748165 -30.016742 19.922818 -1.544050 1.546286 29.282356 -14.873208 
